<mxfile host="65bd71144e">
    <diagram id="gQW9otPTpHMc0TaweCRM" name="第 1 页">
        <mxGraphModel dx="2986" dy="1187" grid="1" gridSize="10" guides="0" tooltips="1" connect="1" arrows="0" fold="1" page="0" pageScale="1" pageWidth="3300" pageHeight="4681" math="0" shadow="0">
            <root>
                <mxCell id="0"/>
                <mxCell id="1" parent="0"/>
                <mxCell id="313" value="&lt;h1 style=&quot;font-size: 13px;&quot;&gt;im 系统&lt;/h1&gt;" style="text;html=1;strokeColor=none;fillColor=none;spacing=5;spacingTop=-20;whiteSpace=wrap;overflow=hidden;rounded=0;fontSize=13;fontStyle=1" parent="1" vertex="1">
                    <mxGeometry x="30" y="120" width="1530" height="1760" as="geometry"/>
                </mxCell>
                <mxCell id="49" style="edgeStyle=none;html=1;exitX=0.5;exitY=0;exitDx=0;exitDy=0;entryX=0.5;entryY=1;entryDx=0;entryDy=0;fontSize=13;fontStyle=1" parent="1" source="3" target="16" edge="1">
                    <mxGeometry relative="1" as="geometry"/>
                </mxCell>
                <mxCell id="66" style="edgeStyle=none;html=1;exitX=0.5;exitY=0;exitDx=0;exitDy=0;startArrow=none;fontSize=13;fontStyle=1" parent="1" source="127" target="65" edge="1">
                    <mxGeometry relative="1" as="geometry"/>
                </mxCell>
                <mxCell id="96" style="edgeStyle=none;html=1;exitX=0.5;exitY=0;exitDx=0;exitDy=0;entryX=1;entryY=0.5;entryDx=0;entryDy=0;startArrow=none;fontSize=13;fontStyle=1" parent="1" source="130" target="97" edge="1">
                    <mxGeometry relative="1" as="geometry">
                        <mxPoint x="-650" y="310" as="targetPoint"/>
                    </mxGeometry>
                </mxCell>
                <mxCell id="122" style="edgeStyle=none;html=1;exitX=0;exitY=0.5;exitDx=0;exitDy=0;startArrow=none;fontSize=13;fontStyle=1" parent="1" source="144" target="123" edge="1">
                    <mxGeometry relative="1" as="geometry">
                        <mxPoint x="-650" y="620" as="targetPoint"/>
                    </mxGeometry>
                </mxCell>
                <mxCell id="177" style="edgeStyle=none;html=1;exitX=0.5;exitY=1;exitDx=0;exitDy=0;entryX=1;entryY=0.25;entryDx=0;entryDy=0;startArrow=none;fontSize=13;fontStyle=1" parent="1" source="185" target="178" edge="1">
                    <mxGeometry relative="1" as="geometry">
                        <mxPoint x="-580" y="1220" as="targetPoint"/>
                    </mxGeometry>
                </mxCell>
                <mxCell id="247" style="edgeStyle=none;html=1;exitX=1;exitY=0.5;exitDx=0;exitDy=0;entryX=0;entryY=0.5;entryDx=0;entryDy=0;startArrow=none;fontSize=13;fontStyle=1" parent="1" source="240" target="235" edge="1">
                    <mxGeometry relative="1" as="geometry"/>
                </mxCell>
                <mxCell id="271" style="edgeStyle=none;html=1;exitX=1.02;exitY=0.765;exitDx=0;exitDy=0;entryX=0;entryY=0.5;entryDx=0;entryDy=0;startArrow=none;exitPerimeter=0;fontSize=13;fontStyle=1" parent="1" source="273" target="270" edge="1">
                    <mxGeometry relative="1" as="geometry"/>
                </mxCell>
                <mxCell id="307" style="edgeStyle=none;html=1;exitX=1;exitY=0.5;exitDx=0;exitDy=0;entryX=0;entryY=0.5;entryDx=0;entryDy=0;fontSize=13;startArrow=none;fontStyle=1" parent="1" source="305" target="298" edge="1">
                    <mxGeometry relative="1" as="geometry"/>
                </mxCell>
                <mxCell id="3" value="用户id" style="rhombus;whiteSpace=wrap;html=1;fontSize=13;fontStyle=1" parent="1" vertex="1">
                    <mxGeometry x="-160" y="630" width="90" height="60" as="geometry"/>
                </mxCell>
                <mxCell id="5" value="消息系统" style="rounded=0;whiteSpace=wrap;html=1;fontSize=13;fontStyle=1" parent="1" vertex="1">
                    <mxGeometry x="-1260" y="-350" width="100" height="50" as="geometry"/>
                </mxCell>
                <mxCell id="25" style="edgeStyle=none;html=1;exitX=0.5;exitY=0;exitDx=0;exitDy=0;entryX=1;entryY=1;entryDx=0;entryDy=0;fontSize=13;fontStyle=1" parent="1" source="16" target="17" edge="1">
                    <mxGeometry relative="1" as="geometry"/>
                </mxCell>
                <mxCell id="27" style="edgeStyle=none;html=1;exitX=0.5;exitY=0;exitDx=0;exitDy=0;entryX=0.5;entryY=1;entryDx=0;entryDy=0;fontSize=13;fontStyle=1" parent="1" source="16" target="19" edge="1">
                    <mxGeometry relative="1" as="geometry">
                        <mxPoint x="-580" y="-35" as="targetPoint"/>
                    </mxGeometry>
                </mxCell>
                <mxCell id="30" style="edgeStyle=none;html=1;exitX=0.5;exitY=0;exitDx=0;exitDy=0;entryX=0.5;entryY=1;entryDx=0;entryDy=0;fontSize=13;fontStyle=1" parent="1" source="16" target="29" edge="1">
                    <mxGeometry relative="1" as="geometry"/>
                </mxCell>
                <mxCell id="33" style="edgeStyle=none;html=1;exitX=0.5;exitY=0;exitDx=0;exitDy=0;fontSize=13;fontStyle=1" parent="1" source="16" target="31" edge="1">
                    <mxGeometry relative="1" as="geometry"/>
                </mxCell>
                <mxCell id="44" style="edgeStyle=none;html=1;exitX=0.5;exitY=0;exitDx=0;exitDy=0;entryX=0;entryY=0.5;entryDx=0;entryDy=0;fontSize=13;fontStyle=1" parent="1" source="16" target="42" edge="1">
                    <mxGeometry relative="1" as="geometry"/>
                </mxCell>
                <mxCell id="46" style="edgeStyle=none;html=1;exitX=0.5;exitY=0;exitDx=0;exitDy=0;entryX=0;entryY=0.5;entryDx=0;entryDy=0;fontSize=13;fontStyle=1" parent="1" source="16" target="45" edge="1">
                    <mxGeometry relative="1" as="geometry"/>
                </mxCell>
                <mxCell id="56" style="edgeStyle=none;html=1;entryX=1;entryY=1;entryDx=0;entryDy=0;fontSize=13;fontStyle=1" parent="1" target="54" edge="1">
                    <mxGeometry relative="1" as="geometry">
                        <mxPoint x="-535" y="180" as="sourcePoint"/>
                    </mxGeometry>
                </mxCell>
                <mxCell id="58" style="edgeStyle=none;html=1;exitX=0.5;exitY=0;exitDx=0;exitDy=0;entryX=1;entryY=1;entryDx=0;entryDy=0;fontSize=13;fontStyle=1" parent="1" source="16" target="57" edge="1">
                    <mxGeometry relative="1" as="geometry"/>
                </mxCell>
                <mxCell id="79" style="edgeStyle=none;html=1;exitX=0.5;exitY=0;exitDx=0;exitDy=0;fontSize=13;fontStyle=1" parent="1" source="16" edge="1">
                    <mxGeometry relative="1" as="geometry">
                        <mxPoint x="-830" y="130" as="targetPoint"/>
                    </mxGeometry>
                </mxCell>
                <mxCell id="94" style="edgeStyle=none;html=1;exitX=0.5;exitY=0;exitDx=0;exitDy=0;entryX=0.5;entryY=1;entryDx=0;entryDy=0;fontSize=13;fontStyle=1" parent="1" source="16" target="95" edge="1">
                    <mxGeometry relative="1" as="geometry">
                        <mxPoint x="-560" y="-70" as="targetPoint"/>
                    </mxGeometry>
                </mxCell>
                <mxCell id="114" style="edgeStyle=none;html=1;exitX=0.5;exitY=0;exitDx=0;exitDy=0;entryX=0.5;entryY=1;entryDx=0;entryDy=0;fontSize=13;fontStyle=1" parent="1" source="16" target="115" edge="1">
                    <mxGeometry relative="1" as="geometry">
                        <mxPoint x="-570" y="-60" as="targetPoint"/>
                    </mxGeometry>
                </mxCell>
                <mxCell id="118" style="edgeStyle=none;html=1;exitX=0.618;exitY=-0.079;exitDx=0;exitDy=0;entryX=0.5;entryY=1;entryDx=0;entryDy=0;exitPerimeter=0;fontSize=13;fontStyle=1" parent="1" source="16" target="117" edge="1">
                    <mxGeometry relative="1" as="geometry"/>
                </mxCell>
                <mxCell id="16" value="站内信" style="rounded=0;whiteSpace=wrap;html=1;fontSize=13;fontStyle=1" parent="1" vertex="1">
                    <mxGeometry x="-570" y="180" width="70" height="40" as="geometry"/>
                </mxCell>
                <mxCell id="17" value="站内信内容" style="ellipse;whiteSpace=wrap;html=1;fontSize=13;fontStyle=1" parent="1" vertex="1">
                    <mxGeometry x="-770" y="-70" width="70" height="40" as="geometry"/>
                </mxCell>
                <mxCell id="19" value="信息接收人范围" style="ellipse;whiteSpace=wrap;html=1;fontSize=13;fontStyle=1" parent="1" vertex="1">
                    <mxGeometry x="-690" y="-95" width="70" height="40" as="geometry"/>
                </mxCell>
                <mxCell id="29" value="接收人" style="ellipse;whiteSpace=wrap;html=1;fontSize=13;fontStyle=1" parent="1" vertex="1">
                    <mxGeometry x="-430" y="-120" width="70" height="40" as="geometry"/>
                </mxCell>
                <mxCell id="31" value="读取状态" style="ellipse;whiteSpace=wrap;html=1;fontSize=13;fontStyle=1" parent="1" vertex="1">
                    <mxGeometry x="-360" y="-80" width="80" height="40" as="geometry"/>
                </mxCell>
                <mxCell id="42" value="发送时间" style="ellipse;whiteSpace=wrap;html=1;fontSize=13;fontStyle=1" parent="1" vertex="1">
                    <mxGeometry x="-150" y="35" width="70" height="40" as="geometry"/>
                </mxCell>
                <mxCell id="45" value="读取时间" style="ellipse;whiteSpace=wrap;html=1;fontSize=13;fontStyle=1" parent="1" vertex="1">
                    <mxGeometry x="-270" y="-55" width="70" height="40" as="geometry"/>
                </mxCell>
                <mxCell id="54" value="站内信标题" style="ellipse;whiteSpace=wrap;html=1;fontSize=13;fontStyle=1" parent="1" vertex="1">
                    <mxGeometry x="-850" y="-15" width="70" height="40" as="geometry"/>
                </mxCell>
                <mxCell id="57" value="站内信类型" style="ellipse;whiteSpace=wrap;html=1;fontSize=13;fontStyle=1" parent="1" vertex="1">
                    <mxGeometry x="-890" y="35" width="70" height="40" as="geometry"/>
                </mxCell>
                <mxCell id="68" style="edgeStyle=none;html=1;exitX=0.25;exitY=0;exitDx=0;exitDy=0;entryX=0.5;entryY=1;entryDx=0;entryDy=0;fontSize=13;fontStyle=1" parent="1" source="65" target="67" edge="1">
                    <mxGeometry relative="1" as="geometry"/>
                </mxCell>
                <mxCell id="70" style="edgeStyle=none;html=1;exitX=0.5;exitY=0;exitDx=0;exitDy=0;entryX=0.333;entryY=0.95;entryDx=0;entryDy=0;entryPerimeter=0;fontSize=13;fontStyle=1" parent="1" source="65" target="69" edge="1">
                    <mxGeometry relative="1" as="geometry"/>
                </mxCell>
                <mxCell id="72" style="edgeStyle=none;html=1;exitX=0.75;exitY=0;exitDx=0;exitDy=0;entryX=0;entryY=1;entryDx=0;entryDy=0;fontSize=13;fontStyle=1" parent="1" source="65" target="71" edge="1">
                    <mxGeometry relative="1" as="geometry"/>
                </mxCell>
                <mxCell id="75" style="edgeStyle=none;html=1;exitX=0.75;exitY=0;exitDx=0;exitDy=0;entryX=0;entryY=1;entryDx=0;entryDy=0;fontSize=13;fontStyle=1" parent="1" source="65" target="74" edge="1">
                    <mxGeometry relative="1" as="geometry"/>
                </mxCell>
                <mxCell id="76" style="edgeStyle=none;html=1;exitX=0.75;exitY=0;exitDx=0;exitDy=0;entryX=0;entryY=0.8;entryDx=0;entryDy=0;entryPerimeter=0;fontSize=13;fontStyle=1" parent="1" source="65" target="73" edge="1">
                    <mxGeometry relative="1" as="geometry"/>
                </mxCell>
                <mxCell id="196" style="edgeStyle=none;html=1;exitX=0.75;exitY=0;exitDx=0;exitDy=0;entryX=0;entryY=0.5;entryDx=0;entryDy=0;fontSize=13;fontStyle=1" parent="1" source="65" target="77" edge="1">
                    <mxGeometry relative="1" as="geometry"/>
                </mxCell>
                <mxCell id="65" value="验证码" style="rounded=0;whiteSpace=wrap;html=1;fontSize=13;direction=west;fontStyle=1" parent="1" vertex="1">
                    <mxGeometry x="-500" y="1370" width="70" height="40" as="geometry"/>
                </mxCell>
                <mxCell id="67" value="验证码" style="ellipse;whiteSpace=wrap;html=1;fontSize=13;fontStyle=1" parent="1" vertex="1">
                    <mxGeometry x="-740" y="1380" width="60" height="40" as="geometry"/>
                </mxCell>
                <mxCell id="69" value="发送时间" style="ellipse;whiteSpace=wrap;html=1;fontSize=13;fontStyle=1" parent="1" vertex="1">
                    <mxGeometry x="-360" y="1480" width="60" height="40" as="geometry"/>
                </mxCell>
                <mxCell id="71" value="验证时间" style="ellipse;whiteSpace=wrap;html=1;fontSize=13;fontStyle=1" parent="1" vertex="1">
                    <mxGeometry x="-660" y="1530" width="60" height="40" as="geometry"/>
                </mxCell>
                <mxCell id="73" value="过期时间" style="ellipse;whiteSpace=wrap;html=1;fontSize=13;fontStyle=1" parent="1" vertex="1">
                    <mxGeometry x="-540" y="1560" width="60" height="40" as="geometry"/>
                </mxCell>
                <mxCell id="74" value="验证状态" style="ellipse;whiteSpace=wrap;html=1;fontSize=13;fontStyle=1" parent="1" vertex="1">
                    <mxGeometry x="-740" y="1480" width="60" height="40" as="geometry"/>
                </mxCell>
                <mxCell id="77" value="过期状态" style="ellipse;whiteSpace=wrap;html=1;fontSize=13;fontStyle=1" parent="1" vertex="1">
                    <mxGeometry x="-420" y="1540" width="60" height="40" as="geometry"/>
                </mxCell>
                <mxCell id="81" style="edgeStyle=none;html=1;exitX=0;exitY=0.5;exitDx=0;exitDy=0;entryX=1;entryY=0.5;entryDx=0;entryDy=0;fontSize=13;fontStyle=1" parent="1" source="80" target="83" edge="1">
                    <mxGeometry relative="1" as="geometry">
                        <mxPoint x="-950" y="120" as="targetPoint"/>
                    </mxGeometry>
                </mxCell>
                <mxCell id="80" value="消息id" style="ellipse;whiteSpace=wrap;html=1;fontSize=13;fontStyle=1" parent="1" vertex="1">
                    <mxGeometry x="-890" y="100" width="70" height="40" as="geometry"/>
                </mxCell>
                <mxCell id="88" style="edgeStyle=none;html=1;entryX=1;entryY=0.5;entryDx=0;entryDy=0;fontSize=13;fontStyle=1" parent="1" target="85" edge="1">
                    <mxGeometry relative="1" as="geometry">
                        <mxPoint x="-1080" y="100" as="sourcePoint"/>
                    </mxGeometry>
                </mxCell>
                <mxCell id="89" style="edgeStyle=none;html=1;exitX=0.5;exitY=0;exitDx=0;exitDy=0;fontSize=13;fontStyle=1" parent="1" source="83" edge="1">
                    <mxGeometry relative="1" as="geometry">
                        <mxPoint x="-1040" y="-20" as="targetPoint"/>
                    </mxGeometry>
                </mxCell>
                <mxCell id="90" style="edgeStyle=none;html=1;exitX=0.25;exitY=0;exitDx=0;exitDy=0;fontSize=13;fontStyle=1" parent="1" source="83" target="87" edge="1">
                    <mxGeometry relative="1" as="geometry"/>
                </mxCell>
                <mxCell id="138" style="edgeStyle=none;html=1;exitX=0.75;exitY=0;exitDx=0;exitDy=0;entryX=0.383;entryY=0.965;entryDx=0;entryDy=0;entryPerimeter=0;fontSize=13;fontStyle=1" parent="1" source="83" target="139" edge="1">
                    <mxGeometry relative="1" as="geometry">
                        <mxPoint x="-960" as="targetPoint"/>
                    </mxGeometry>
                </mxCell>
                <mxCell id="83" value="公告信息" style="rounded=0;whiteSpace=wrap;html=1;fontSize=13;fontStyle=1" parent="1" vertex="1">
                    <mxGeometry x="-1080" y="90" width="70" height="40" as="geometry"/>
                </mxCell>
                <mxCell id="85" value="消息id" style="ellipse;whiteSpace=wrap;html=1;fontSize=13;fontStyle=1" parent="1" vertex="1">
                    <mxGeometry x="-1260" y="35" width="70" height="40" as="geometry"/>
                </mxCell>
                <mxCell id="86" value="读取状态" style="ellipse;whiteSpace=wrap;html=1;fontSize=13;fontStyle=1" parent="1" vertex="1">
                    <mxGeometry x="-1070" y="-65" width="70" height="40" as="geometry"/>
                </mxCell>
                <mxCell id="87" value="接收人" style="ellipse;whiteSpace=wrap;html=1;fontSize=13;fontStyle=1" parent="1" vertex="1">
                    <mxGeometry x="-1190" y="-40" width="70" height="40" as="geometry"/>
                </mxCell>
                <mxCell id="95" value="消息渠道" style="ellipse;whiteSpace=wrap;html=1;fontSize=13;fontStyle=1" parent="1" vertex="1">
                    <mxGeometry x="-530" y="-100" width="70" height="40" as="geometry"/>
                </mxCell>
                <mxCell id="98" style="edgeStyle=none;html=1;exitX=0;exitY=0.5;exitDx=0;exitDy=0;entryX=1;entryY=0.5;entryDx=0;entryDy=0;fontSize=13;fontStyle=1" parent="1" source="97" target="99" edge="1">
                    <mxGeometry relative="1" as="geometry">
                        <mxPoint x="-920" y="324.7647058823529" as="targetPoint"/>
                    </mxGeometry>
                </mxCell>
                <mxCell id="100" style="edgeStyle=none;html=1;exitX=0;exitY=0.5;exitDx=0;exitDy=0;entryX=1;entryY=0.5;entryDx=0;entryDy=0;fontSize=13;fontStyle=1" parent="1" source="97" target="101" edge="1">
                    <mxGeometry relative="1" as="geometry">
                        <mxPoint x="-950" y="425" as="targetPoint"/>
                    </mxGeometry>
                </mxCell>
                <mxCell id="102" style="edgeStyle=none;html=1;exitX=0;exitY=0.5;exitDx=0;exitDy=0;entryX=1;entryY=0.5;entryDx=0;entryDy=0;fontSize=13;fontStyle=1" parent="1" source="97" target="103" edge="1">
                    <mxGeometry relative="1" as="geometry">
                        <mxPoint x="-1040" y="365" as="targetPoint"/>
                    </mxGeometry>
                </mxCell>
                <mxCell id="104" style="edgeStyle=none;html=1;exitX=0;exitY=0.5;exitDx=0;exitDy=0;entryX=1;entryY=0.5;entryDx=0;entryDy=0;fontSize=13;fontStyle=1" parent="1" source="97" target="105" edge="1">
                    <mxGeometry relative="1" as="geometry">
                        <mxPoint x="-990" y="305" as="targetPoint"/>
                    </mxGeometry>
                </mxCell>
                <mxCell id="111" style="edgeStyle=none;html=1;exitX=0;exitY=0.5;exitDx=0;exitDy=0;entryX=1;entryY=1;entryDx=0;entryDy=0;fontSize=13;fontStyle=1" parent="1" source="97" target="110" edge="1">
                    <mxGeometry relative="1" as="geometry"/>
                </mxCell>
                <mxCell id="112" style="edgeStyle=none;html=1;exitX=0;exitY=0.5;exitDx=0;exitDy=0;entryX=0.669;entryY=1.068;entryDx=0;entryDy=0;entryPerimeter=0;fontSize=13;fontStyle=1" parent="1" source="97" target="113" edge="1">
                    <mxGeometry relative="1" as="geometry">
                        <mxPoint x="-950" y="255" as="targetPoint"/>
                    </mxGeometry>
                </mxCell>
                <mxCell id="142" style="edgeStyle=none;html=1;exitX=0;exitY=0.5;exitDx=0;exitDy=0;entryX=1;entryY=0;entryDx=0;entryDy=0;fontSize=13;fontStyle=1" parent="1" source="97" target="141" edge="1">
                    <mxGeometry relative="1" as="geometry"/>
                </mxCell>
                <mxCell id="97" value="用药提醒" style="rounded=0;whiteSpace=wrap;html=1;fontSize=13;fontStyle=1" parent="1" vertex="1">
                    <mxGeometry x="-840" y="345" width="70" height="40" as="geometry"/>
                </mxCell>
                <mxCell id="99" value="提醒对象" style="ellipse;whiteSpace=wrap;html=1;fontSize=13;fontStyle=1" parent="1" vertex="1">
                    <mxGeometry x="-1030" y="495" width="70" height="40" as="geometry"/>
                </mxCell>
                <mxCell id="101" value="下一次生效时间" style="ellipse;whiteSpace=wrap;html=1;fontSize=13;fontStyle=1" parent="1" vertex="1">
                    <mxGeometry x="-1110" y="385" width="70" height="40" as="geometry"/>
                </mxCell>
                <mxCell id="103" value="用药时间点" style="ellipse;whiteSpace=wrap;html=1;fontSize=13;fontStyle=1" parent="1" vertex="1">
                    <mxGeometry x="-1120" y="330" width="70" height="40" as="geometry"/>
                </mxCell>
                <mxCell id="105" value="药品名" style="ellipse;whiteSpace=wrap;html=1;fontSize=13;fontStyle=1" parent="1" vertex="1">
                    <mxGeometry x="-1117.5" y="260" width="70" height="40" as="geometry"/>
                </mxCell>
                <mxCell id="110" value="发送状态" style="ellipse;whiteSpace=wrap;html=1;fontSize=13;fontStyle=1" parent="1" vertex="1">
                    <mxGeometry x="-1035" y="195" width="70" height="40" as="geometry"/>
                </mxCell>
                <mxCell id="113" value="用户确认状态" style="ellipse;whiteSpace=wrap;html=1;fontSize=13;fontStyle=1" parent="1" vertex="1">
                    <mxGeometry x="-975" y="155" width="70" height="40" as="geometry"/>
                </mxCell>
                <mxCell id="115" value="应接收消息总人数" style="ellipse;whiteSpace=wrap;html=1;fontSize=13;fontStyle=1" parent="1" vertex="1">
                    <mxGeometry x="-610" y="-110" width="70" height="40" as="geometry"/>
                </mxCell>
                <mxCell id="117" value="定时发送状态" style="ellipse;whiteSpace=wrap;html=1;fontSize=13;fontStyle=1" parent="1" vertex="1">
                    <mxGeometry x="-200" y="-15" width="70" height="40" as="geometry"/>
                </mxCell>
                <mxCell id="134" style="edgeStyle=none;html=1;exitX=0;exitY=0.5;exitDx=0;exitDy=0;entryX=0.736;entryY=1.053;entryDx=0;entryDy=0;entryPerimeter=0;fontSize=13;fontStyle=1" parent="1" source="123" target="135" edge="1">
                    <mxGeometry relative="1" as="geometry">
                        <mxPoint x="-860" y="690" as="targetPoint"/>
                    </mxGeometry>
                </mxCell>
                <mxCell id="140" style="edgeStyle=none;html=1;exitX=0;exitY=0.5;exitDx=0;exitDy=0;entryX=0.971;entryY=0.774;entryDx=0;entryDy=0;entryPerimeter=0;fontSize=13;fontStyle=1" parent="1" source="123" target="143" edge="1">
                    <mxGeometry relative="1" as="geometry">
                        <mxPoint x="-910" y="730" as="targetPoint"/>
                    </mxGeometry>
                </mxCell>
                <mxCell id="146" style="edgeStyle=none;html=1;exitX=0;exitY=0.5;exitDx=0;exitDy=0;entryX=1;entryY=1;entryDx=0;entryDy=0;fontSize=13;fontStyle=1" parent="1" source="123" target="147" edge="1">
                    <mxGeometry relative="1" as="geometry">
                        <mxPoint x="-950" y="660" as="targetPoint"/>
                    </mxGeometry>
                </mxCell>
                <mxCell id="148" style="edgeStyle=none;html=1;exitX=0;exitY=0.5;exitDx=0;exitDy=0;entryX=1;entryY=0.5;entryDx=0;entryDy=0;entryPerimeter=0;exitPerimeter=0;fontSize=13;fontStyle=1" parent="1" source="123" target="149" edge="1">
                    <mxGeometry relative="1" as="geometry">
                        <mxPoint x="-990" y="720" as="targetPoint"/>
                    </mxGeometry>
                </mxCell>
                <mxCell id="150" style="edgeStyle=none;html=1;entryX=1;entryY=0.5;entryDx=0;entryDy=0;exitX=0;exitY=0.5;exitDx=0;exitDy=0;fontSize=13;fontStyle=1" parent="1" source="123" target="151" edge="1">
                    <mxGeometry relative="1" as="geometry">
                        <mxPoint x="-1000" y="760" as="targetPoint"/>
                        <mxPoint x="-750" y="790" as="sourcePoint"/>
                    </mxGeometry>
                </mxCell>
                <mxCell id="154" style="edgeStyle=none;html=1;exitX=0;exitY=0.5;exitDx=0;exitDy=0;entryX=1;entryY=0.5;entryDx=0;entryDy=0;fontSize=13;fontStyle=1" parent="1" source="123" target="155" edge="1">
                    <mxGeometry relative="1" as="geometry">
                        <mxPoint x="-1060" y="670" as="targetPoint"/>
                    </mxGeometry>
                </mxCell>
                <mxCell id="158" style="edgeStyle=none;html=1;exitX=0;exitY=0.5;exitDx=0;exitDy=0;entryX=0.997;entryY=0.303;entryDx=0;entryDy=0;entryPerimeter=0;fontSize=13;fontStyle=1" parent="1" source="123" target="159" edge="1">
                    <mxGeometry relative="1" as="geometry">
                        <mxPoint x="-1100" y="870" as="targetPoint"/>
                    </mxGeometry>
                </mxCell>
                <mxCell id="161" style="edgeStyle=none;html=1;exitX=0;exitY=0.5;exitDx=0;exitDy=0;entryX=1;entryY=0;entryDx=0;entryDy=0;fontSize=13;fontStyle=1" parent="1" source="123" target="160" edge="1">
                    <mxGeometry relative="1" as="geometry"/>
                </mxCell>
                <mxCell id="123" value="视频评论" style="rounded=0;whiteSpace=wrap;html=1;fontSize=13;fontStyle=1" parent="1" vertex="1">
                    <mxGeometry x="-740" y="770" width="70" height="40" as="geometry"/>
                </mxCell>
                <mxCell id="135" value="视频id" style="ellipse;whiteSpace=wrap;html=1;fontSize=13;fontStyle=1" parent="1" vertex="1">
                    <mxGeometry x="-870" y="570" width="70" height="40" as="geometry"/>
                </mxCell>
                <mxCell id="139" value="消息id" style="ellipse;whiteSpace=wrap;html=1;fontSize=13;fontStyle=1" parent="1" vertex="1">
                    <mxGeometry x="-970" y="-50" width="70" height="40" as="geometry"/>
                </mxCell>
                <mxCell id="141" value="首次一次生效时间" style="ellipse;whiteSpace=wrap;html=1;fontSize=13;fontStyle=1" parent="1" vertex="1">
                    <mxGeometry x="-1080" y="440" width="70" height="40" as="geometry"/>
                </mxCell>
                <mxCell id="143" value="评论id" style="ellipse;whiteSpace=wrap;html=1;fontSize=13;fontStyle=1" parent="1" vertex="1">
                    <mxGeometry x="-950" y="580" width="70" height="40" as="geometry"/>
                </mxCell>
                <mxCell id="147" value="一级评论id" style="ellipse;whiteSpace=wrap;html=1;fontSize=13;fontStyle=1" parent="1" vertex="1">
                    <mxGeometry x="-1090" y="610" width="70" height="40" as="geometry"/>
                </mxCell>
                <mxCell id="149" value="回复对象" style="ellipse;whiteSpace=wrap;html=1;fontSize=13;fontStyle=1" parent="1" vertex="1">
                    <mxGeometry x="-1187.5" y="750" width="70" height="40" as="geometry"/>
                </mxCell>
                <mxCell id="151" value="评论层级" style="ellipse;whiteSpace=wrap;html=1;fontSize=13;fontStyle=1" parent="1" vertex="1">
                    <mxGeometry x="-1045" y="570" width="70" height="40" as="geometry"/>
                </mxCell>
                <mxCell id="155" value="评论组" style="ellipse;whiteSpace=wrap;html=1;fontSize=13;fontStyle=1" parent="1" vertex="1">
                    <mxGeometry x="-1140" y="650" width="70" height="40" as="geometry"/>
                </mxCell>
                <mxCell id="159" value="评论内容" style="ellipse;whiteSpace=wrap;html=1;fontSize=13;fontStyle=1" parent="1" vertex="1">
                    <mxGeometry x="-1180" y="820" width="70" height="40" as="geometry"/>
                </mxCell>
                <mxCell id="160" value="评论额外内容" style="ellipse;whiteSpace=wrap;html=1;fontSize=13;fontStyle=1" parent="1" vertex="1">
                    <mxGeometry x="-1160" y="880" width="70" height="40" as="geometry"/>
                </mxCell>
                <mxCell id="165" style="edgeStyle=none;html=1;exitX=0;exitY=0.25;exitDx=0;exitDy=0;entryX=1;entryY=1;entryDx=0;entryDy=0;fontSize=13;fontStyle=1" parent="1" source="164" target="166" edge="1">
                    <mxGeometry relative="1" as="geometry">
                        <mxPoint x="-830" y="990" as="targetPoint"/>
                    </mxGeometry>
                </mxCell>
                <mxCell id="167" style="edgeStyle=none;html=1;exitX=0;exitY=0.25;exitDx=0;exitDy=0;entryX=1;entryY=1;entryDx=0;entryDy=0;fontSize=13;fontStyle=1" parent="1" source="164" target="168" edge="1">
                    <mxGeometry relative="1" as="geometry">
                        <mxPoint x="-930" y="1050" as="targetPoint"/>
                    </mxGeometry>
                </mxCell>
                <mxCell id="169" style="edgeStyle=none;html=1;exitX=0;exitY=0.5;exitDx=0;exitDy=0;entryX=1;entryY=0.5;entryDx=0;entryDy=0;entryPerimeter=0;fontSize=13;fontStyle=1" parent="1" source="164" target="170" edge="1">
                    <mxGeometry relative="1" as="geometry">
                        <mxPoint x="-950" y="1080.3529411764707" as="targetPoint"/>
                    </mxGeometry>
                </mxCell>
                <mxCell id="164" value="直播弹幕" style="rounded=0;whiteSpace=wrap;html=1;fontSize=13;fontStyle=1" parent="1" vertex="1">
                    <mxGeometry x="-740" y="1040" width="70" height="40" as="geometry"/>
                </mxCell>
                <mxCell id="166" value="直播id" style="ellipse;whiteSpace=wrap;html=1;fontSize=13;fontStyle=1" parent="1" vertex="1">
                    <mxGeometry x="-910" y="970" width="70" height="40" as="geometry"/>
                </mxCell>
                <mxCell id="168" value="弹幕内容" style="ellipse;whiteSpace=wrap;html=1;fontSize=13;fontStyle=1" parent="1" vertex="1">
                    <mxGeometry x="-1000" y="1000" width="70" height="40" as="geometry"/>
                </mxCell>
                <mxCell id="170" value="播放时长" style="ellipse;whiteSpace=wrap;html=1;fontSize=13;fontStyle=1" parent="1" vertex="1">
                    <mxGeometry x="-1030" y="1060" width="70" height="40" as="geometry"/>
                </mxCell>
                <mxCell id="179" style="edgeStyle=none;html=1;exitX=0;exitY=0.25;exitDx=0;exitDy=0;entryX=1;entryY=1;entryDx=0;entryDy=0;fontSize=13;fontStyle=1" parent="1" source="178" target="182" edge="1">
                    <mxGeometry relative="1" as="geometry">
                        <mxPoint x="-810" y="1180" as="targetPoint"/>
                    </mxGeometry>
                </mxCell>
                <mxCell id="186" style="edgeStyle=none;html=1;exitX=0;exitY=0.5;exitDx=0;exitDy=0;fontSize=13;fontStyle=1" parent="1" source="178" target="184" edge="1">
                    <mxGeometry relative="1" as="geometry"/>
                </mxCell>
                <mxCell id="188" style="edgeStyle=none;html=1;exitX=0;exitY=0.75;exitDx=0;exitDy=0;entryX=1;entryY=0.5;entryDx=0;entryDy=0;fontSize=13;fontStyle=1" parent="1" source="178" target="183" edge="1">
                    <mxGeometry relative="1" as="geometry"/>
                </mxCell>
                <mxCell id="190" style="edgeStyle=none;html=1;exitX=0;exitY=0.75;exitDx=0;exitDy=0;entryX=1;entryY=0.5;entryDx=0;entryDy=0;fontSize=13;fontStyle=1" parent="1" source="178" target="189" edge="1">
                    <mxGeometry relative="1" as="geometry"/>
                </mxCell>
                <mxCell id="191" style="edgeStyle=none;html=1;exitX=0;exitY=0.75;exitDx=0;exitDy=0;entryX=1;entryY=0.5;entryDx=0;entryDy=0;fontSize=13;fontStyle=1" parent="1" source="178" target="192" edge="1">
                    <mxGeometry relative="1" as="geometry">
                        <mxPoint x="-970" y="1390" as="targetPoint"/>
                    </mxGeometry>
                </mxCell>
                <mxCell id="178" value="商品评价" style="rounded=0;whiteSpace=wrap;html=1;fontSize=13;fontStyle=1" parent="1" vertex="1">
                    <mxGeometry x="-670" y="1220" width="70" height="40" as="geometry"/>
                </mxCell>
                <mxCell id="182" value="订单id" style="ellipse;whiteSpace=wrap;html=1;fontSize=13;fontStyle=1" parent="1" vertex="1">
                    <mxGeometry x="-890" y="1130" width="70" height="40" as="geometry"/>
                </mxCell>
                <mxCell id="183" value="星级" style="ellipse;whiteSpace=wrap;html=1;fontSize=13;fontStyle=1" parent="1" vertex="1">
                    <mxGeometry x="-1010" y="1250" width="70" height="40" as="geometry"/>
                </mxCell>
                <mxCell id="184" value="商品id" style="ellipse;whiteSpace=wrap;html=1;fontSize=13;fontStyle=1" parent="1" vertex="1">
                    <mxGeometry x="-975" y="1150" width="70" height="40" as="geometry"/>
                </mxCell>
                <mxCell id="189" value="评价内容" style="ellipse;whiteSpace=wrap;html=1;fontSize=13;fontStyle=1" parent="1" vertex="1">
                    <mxGeometry x="-1000" y="1310" width="70" height="40" as="geometry"/>
                </mxCell>
                <mxCell id="192" value="图片链接" style="ellipse;whiteSpace=wrap;html=1;fontSize=13;fontStyle=1" parent="1" vertex="1">
                    <mxGeometry x="-1020" y="1380" width="70" height="40" as="geometry"/>
                </mxCell>
                <mxCell id="209" style="edgeStyle=none;html=1;exitX=0.5;exitY=0;exitDx=0;exitDy=0;entryX=0.393;entryY=1.003;entryDx=0;entryDy=0;entryPerimeter=0;fontSize=13;fontStyle=1" parent="1" source="198" target="202" edge="1">
                    <mxGeometry relative="1" as="geometry"/>
                </mxCell>
                <mxCell id="210" style="edgeStyle=none;html=1;exitX=0.5;exitY=0;exitDx=0;exitDy=0;entryX=0;entryY=1;entryDx=0;entryDy=0;fontSize=13;fontStyle=1" parent="1" source="198" target="205" edge="1">
                    <mxGeometry relative="1" as="geometry"/>
                </mxCell>
                <mxCell id="211" style="edgeStyle=none;html=1;exitX=0.5;exitY=0;exitDx=0;exitDy=0;fontSize=13;fontStyle=1" parent="1" source="198" target="201" edge="1">
                    <mxGeometry relative="1" as="geometry"/>
                </mxCell>
                <mxCell id="212" style="edgeStyle=none;html=1;exitX=0.5;exitY=0;exitDx=0;exitDy=0;entryX=0;entryY=1;entryDx=0;entryDy=0;fontSize=13;fontStyle=1" parent="1" source="198" target="206" edge="1">
                    <mxGeometry relative="1" as="geometry"/>
                </mxCell>
                <mxCell id="229" style="edgeStyle=none;html=1;exitX=0.5;exitY=0;exitDx=0;exitDy=0;entryX=0;entryY=0.5;entryDx=0;entryDy=0;fontSize=13;fontStyle=1" parent="1" source="198" target="231" edge="1">
                    <mxGeometry relative="1" as="geometry">
                        <mxPoint x="1290" y="282.5" as="targetPoint"/>
                    </mxGeometry>
                </mxCell>
                <mxCell id="230" style="edgeStyle=none;html=1;exitX=0.5;exitY=0;exitDx=0;exitDy=0;entryX=0;entryY=0.5;entryDx=0;entryDy=0;fontSize=13;fontStyle=1" parent="1" source="198" target="228" edge="1">
                    <mxGeometry relative="1" as="geometry"/>
                </mxCell>
                <mxCell id="233" style="edgeStyle=none;html=1;exitX=0.5;exitY=0;exitDx=0;exitDy=0;fontSize=13;fontStyle=1" parent="1" source="198" target="232" edge="1">
                    <mxGeometry relative="1" as="geometry"/>
                </mxCell>
                <mxCell id="286" style="edgeStyle=none;html=1;exitX=0.5;exitY=1;exitDx=0;exitDy=0;entryX=0.5;entryY=0;entryDx=0;entryDy=0;fontSize=13;fontStyle=1" parent="1" source="198" target="216" edge="1">
                    <mxGeometry relative="1" as="geometry"/>
                </mxCell>
                <mxCell id="198" value="im会话" style="rounded=0;whiteSpace=wrap;html=1;fontSize=13;fontStyle=1" parent="1" vertex="1">
                    <mxGeometry x="930" y="270" width="70" height="40" as="geometry"/>
                </mxCell>
                <mxCell id="201" value="上一条信息" style="ellipse;whiteSpace=wrap;html=1;fontStyle=1;fontSize=13;" parent="1" vertex="1">
                    <mxGeometry x="1200" y="125" width="70" height="40" as="geometry"/>
                </mxCell>
                <mxCell id="202" value="会话类型（单聊，群聊）" style="ellipse;whiteSpace=wrap;html=1;fontStyle=1;fontSize=13;" parent="1" vertex="1">
                    <mxGeometry x="1000" y="10" width="70" height="50" as="geometry"/>
                </mxCell>
                <mxCell id="205" value="会话场景（业务场景）" style="ellipse;whiteSpace=wrap;html=1;fontStyle=1;fontSize=13;" parent="1" vertex="1">
                    <mxGeometry x="1090" y="40" width="70" height="45" as="geometry"/>
                </mxCell>
                <mxCell id="206" value="会话状态" style="ellipse;whiteSpace=wrap;html=1;fontStyle=1;fontSize=13;" parent="1" vertex="1">
                    <mxGeometry x="1150" y="85" width="70" height="40" as="geometry"/>
                </mxCell>
                <mxCell id="215" style="edgeStyle=none;html=1;exitX=1;exitY=0.5;exitDx=0;exitDy=0;entryX=0;entryY=1;entryDx=0;entryDy=0;fontSize=13;fontStyle=1" parent="1" source="214" target="216" edge="1">
                    <mxGeometry relative="1" as="geometry">
                        <mxPoint x="320.01480625606746" y="294.1264284871645" as="targetPoint"/>
                    </mxGeometry>
                </mxCell>
                <mxCell id="219" style="edgeStyle=none;html=1;exitX=1;exitY=0.5;exitDx=0;exitDy=0;entryX=1;entryY=0.5;entryDx=0;entryDy=0;fontSize=13;fontStyle=1" parent="1" source="214" target="217" edge="1">
                    <mxGeometry relative="1" as="geometry"/>
                </mxCell>
                <mxCell id="220" style="edgeStyle=none;html=1;exitX=1;exitY=0.5;exitDx=0;exitDy=0;entryX=0;entryY=0.5;entryDx=0;entryDy=0;fontSize=13;fontStyle=1" parent="1" source="214" target="218" edge="1">
                    <mxGeometry relative="1" as="geometry"/>
                </mxCell>
                <mxCell id="221" style="edgeStyle=none;html=1;exitX=1;exitY=0.5;exitDx=0;exitDy=0;entryX=0;entryY=0.444;entryDx=0;entryDy=0;entryPerimeter=0;fontSize=13;fontStyle=1" parent="1" source="214" target="222" edge="1">
                    <mxGeometry relative="1" as="geometry">
                        <mxPoint x="720" y="198.3699999999999" as="targetPoint"/>
                    </mxGeometry>
                </mxCell>
                <mxCell id="223" style="edgeStyle=none;html=1;exitX=1;exitY=0.5;exitDx=0;exitDy=0;fontSize=13;fontStyle=1" parent="1" source="214" target="224" edge="1">
                    <mxGeometry relative="1" as="geometry">
                        <mxPoint x="720" y="238.3699999999999" as="targetPoint"/>
                    </mxGeometry>
                </mxCell>
                <mxCell id="214" value="会话关系" style="rounded=0;whiteSpace=wrap;html=1;fontSize=13;fontStyle=1" parent="1" vertex="1">
                    <mxGeometry x="410" y="150" width="70" height="40" as="geometry"/>
                </mxCell>
                <mxCell id="216" value="会话id" style="ellipse;whiteSpace=wrap;html=1;fontStyle=1;fontSize=13;" parent="1" vertex="1">
                    <mxGeometry x="570" y="637.5" width="70" height="45" as="geometry"/>
                </mxCell>
                <mxCell id="218" value="消息提醒类型" style="ellipse;whiteSpace=wrap;html=1;fontStyle=1;fontSize=13;" parent="1" vertex="1">
                    <mxGeometry x="720" y="60" width="70" height="45" as="geometry"/>
                </mxCell>
                <mxCell id="222" value="是否置顶" style="ellipse;whiteSpace=wrap;html=1;fontStyle=1;fontSize=13;" parent="1" vertex="1">
                    <mxGeometry x="740" y="133.3699999999999" width="70" height="45" as="geometry"/>
                </mxCell>
                <mxCell id="224" value="是否离开会话" style="ellipse;whiteSpace=wrap;html=1;fontStyle=1;fontSize=13;" parent="1" vertex="1">
                    <mxGeometry x="740" y="220" width="70" height="45" as="geometry"/>
                </mxCell>
                <mxCell id="228" value="会话时间类型" style="ellipse;whiteSpace=wrap;html=1;fontStyle=1;fontSize=13;" parent="1" vertex="1">
                    <mxGeometry x="1250" y="165" width="70" height="40" as="geometry"/>
                </mxCell>
                <mxCell id="231" value="会话延时时间" style="ellipse;whiteSpace=wrap;html=1;fontStyle=1;fontSize=13;" parent="1" vertex="1">
                    <mxGeometry x="1310" y="212.5" width="70" height="40" as="geometry"/>
                </mxCell>
                <mxCell id="232" value="会话关闭时间" style="ellipse;whiteSpace=wrap;html=1;fontStyle=1;fontSize=13;" parent="1" vertex="1">
                    <mxGeometry x="1340" y="262.5" width="70" height="40" as="geometry"/>
                </mxCell>
                <mxCell id="244" style="edgeStyle=none;html=1;exitX=0.5;exitY=0;exitDx=0;exitDy=0;entryX=0.5;entryY=1;entryDx=0;entryDy=0;fontSize=13;fontStyle=1" parent="1" source="235" target="237" edge="1">
                    <mxGeometry relative="1" as="geometry"/>
                </mxCell>
                <mxCell id="258" style="edgeStyle=none;html=1;exitX=0.5;exitY=0;exitDx=0;exitDy=0;entryX=0.5;entryY=1;entryDx=0;entryDy=0;fontSize=13;fontStyle=1" parent="1" source="235" target="242" edge="1">
                    <mxGeometry relative="1" as="geometry"/>
                </mxCell>
                <mxCell id="259" style="edgeStyle=none;html=1;exitX=0.5;exitY=0;exitDx=0;exitDy=0;entryX=0;entryY=1;entryDx=0;entryDy=0;fontSize=13;fontStyle=1" parent="1" source="235" target="241" edge="1">
                    <mxGeometry relative="1" as="geometry"/>
                </mxCell>
                <mxCell id="261" style="edgeStyle=none;html=1;exitX=0.5;exitY=0;exitDx=0;exitDy=0;entryX=0;entryY=0.5;entryDx=0;entryDy=0;fontSize=13;fontStyle=1" parent="1" source="235" target="262" edge="1">
                    <mxGeometry relative="1" as="geometry">
                        <mxPoint x="1330" y="693" as="targetPoint"/>
                    </mxGeometry>
                </mxCell>
                <mxCell id="263" style="edgeStyle=none;html=1;exitX=0.5;exitY=0;exitDx=0;exitDy=0;entryX=0;entryY=0.5;entryDx=0;entryDy=0;fontSize=13;fontStyle=1" parent="1" source="235" target="264" edge="1">
                    <mxGeometry relative="1" as="geometry">
                        <mxPoint x="1390" y="620" as="targetPoint"/>
                    </mxGeometry>
                </mxCell>
                <mxCell id="265" style="edgeStyle=none;html=1;exitX=0.5;exitY=0;exitDx=0;exitDy=0;entryX=0;entryY=0.5;entryDx=0;entryDy=0;fontSize=13;fontStyle=1" parent="1" source="235" target="266" edge="1">
                    <mxGeometry relative="1" as="geometry">
                        <mxPoint x="1410" y="660" as="targetPoint"/>
                    </mxGeometry>
                </mxCell>
                <mxCell id="267" style="edgeStyle=none;html=1;exitX=0.5;exitY=0;exitDx=0;exitDy=0;entryX=0;entryY=0.389;entryDx=0;entryDy=0;entryPerimeter=0;fontSize=13;fontStyle=1" parent="1" source="235" target="268" edge="1">
                    <mxGeometry relative="1" as="geometry">
                        <mxPoint x="1430" y="720" as="targetPoint"/>
                    </mxGeometry>
                </mxCell>
                <mxCell id="283" style="edgeStyle=none;html=1;exitX=0.5;exitY=0;exitDx=0;exitDy=0;entryX=1;entryY=1;entryDx=0;entryDy=0;fontSize=13;fontStyle=1" parent="1" source="235" target="216" edge="1">
                    <mxGeometry relative="1" as="geometry"/>
                </mxCell>
                <mxCell id="235" value="消息" style="rounded=0;whiteSpace=wrap;html=1;fontSize=13;fontStyle=1" parent="1" vertex="1">
                    <mxGeometry x="950" y="750" width="70" height="40" as="geometry"/>
                </mxCell>
                <mxCell id="237" value="消息id" style="ellipse;whiteSpace=wrap;html=1;fontStyle=1;fontSize=13;" parent="1" vertex="1">
                    <mxGeometry x="1000" y="442.5" width="70" height="45" as="geometry"/>
                </mxCell>
                <mxCell id="241" value="接收人id" style="ellipse;whiteSpace=wrap;html=1;fontStyle=1;fontSize=13;" parent="1" vertex="1">
                    <mxGeometry x="1210" y="460" width="70" height="45" as="geometry"/>
                </mxCell>
                <mxCell id="242" value="消息内容" style="ellipse;whiteSpace=wrap;html=1;fontStyle=1;fontSize=13;" parent="1" vertex="1">
                    <mxGeometry x="1100" y="440" width="70" height="45" as="geometry"/>
                </mxCell>
                <mxCell id="248" value="" style="edgeStyle=none;html=1;exitX=1;exitY=0.5;exitDx=0;exitDy=0;entryX=0;entryY=0.5;entryDx=0;entryDy=0;endArrow=none;fontSize=13;fontStyle=1" parent="1" source="3" target="240" edge="1">
                    <mxGeometry relative="1" as="geometry">
                        <mxPoint x="-290" y="790" as="sourcePoint"/>
                        <mxPoint x="760" y="762.5" as="targetPoint"/>
                    </mxGeometry>
                </mxCell>
                <mxCell id="240" value="发送人id" style="ellipse;whiteSpace=wrap;html=1;fontStyle=1;fontSize=13;" parent="1" vertex="1">
                    <mxGeometry x="570" y="770" width="70" height="45" as="geometry"/>
                </mxCell>
                <mxCell id="249" value="" style="edgeStyle=none;html=1;exitX=1;exitY=0.5;exitDx=0;exitDy=0;entryX=0;entryY=0.5;entryDx=0;entryDy=0;endArrow=none;fontSize=13;fontStyle=1" parent="1" source="3" target="217" edge="1">
                    <mxGeometry relative="1" as="geometry">
                        <mxPoint x="110.00000000000045" y="1228.37" as="targetPoint"/>
                        <mxPoint x="-290" y="790" as="sourcePoint"/>
                    </mxGeometry>
                </mxCell>
                <mxCell id="217" value="用户id" style="ellipse;whiteSpace=wrap;html=1;fontStyle=1;fontSize=13;" parent="1" vertex="1">
                    <mxGeometry x="280" y="220" width="70" height="45" as="geometry"/>
                </mxCell>
                <mxCell id="250" value="" style="edgeStyle=none;html=1;exitX=0;exitY=0.5;exitDx=0;exitDy=0;endArrow=none;fontSize=13;fontStyle=1" parent="1" source="3" target="144" edge="1">
                    <mxGeometry relative="1" as="geometry">
                        <mxPoint x="-670" y="790" as="targetPoint"/>
                        <mxPoint x="-380" y="790" as="sourcePoint"/>
                    </mxGeometry>
                </mxCell>
                <mxCell id="144" value="评论人" style="ellipse;whiteSpace=wrap;html=1;fontSize=13;fontStyle=1" parent="1" vertex="1">
                    <mxGeometry x="-600" y="770" width="70" height="40" as="geometry"/>
                </mxCell>
                <mxCell id="251" value="" style="edgeStyle=none;html=1;exitX=0;exitY=0.5;exitDx=0;exitDy=0;entryX=0.75;entryY=0;entryDx=0;entryDy=0;endArrow=none;startArrow=none;fontSize=13;fontStyle=1" parent="1" source="252" target="164" edge="1">
                    <mxGeometry relative="1" as="geometry">
                        <mxPoint x="-553.8260178273431" y="910.9075885329753" as="targetPoint"/>
                        <mxPoint x="-380" y="790" as="sourcePoint"/>
                    </mxGeometry>
                </mxCell>
                <mxCell id="253" value="" style="edgeStyle=none;html=1;exitX=0;exitY=0.5;exitDx=0;exitDy=0;entryX=0.75;entryY=0;entryDx=0;entryDy=0;endArrow=none;fontSize=13;fontStyle=1" parent="1" source="3" target="252" edge="1">
                    <mxGeometry relative="1" as="geometry">
                        <mxPoint x="-687.5" y="1040" as="targetPoint"/>
                        <mxPoint x="-380" y="790" as="sourcePoint"/>
                    </mxGeometry>
                </mxCell>
                <mxCell id="252" value="发送人" style="ellipse;whiteSpace=wrap;html=1;fontSize=13;fontStyle=1" parent="1" vertex="1">
                    <mxGeometry x="-580" y="910" width="70" height="40" as="geometry"/>
                </mxCell>
                <mxCell id="254" value="" style="edgeStyle=none;html=1;exitX=0.5;exitY=1;exitDx=0;exitDy=0;entryX=1;entryY=0.25;entryDx=0;entryDy=0;endArrow=none;fontSize=13;fontStyle=1" parent="1" source="3" target="185" edge="1">
                    <mxGeometry relative="1" as="geometry">
                        <mxPoint x="-600" y="1230" as="targetPoint"/>
                        <mxPoint x="-335" y="820" as="sourcePoint"/>
                    </mxGeometry>
                </mxCell>
                <mxCell id="185" value="评价人" style="ellipse;whiteSpace=wrap;html=1;fontSize=13;fontStyle=1" parent="1" vertex="1">
                    <mxGeometry x="-500" y="1009.9999999999999" width="70" height="40" as="geometry"/>
                </mxCell>
                <mxCell id="255" value="" style="edgeStyle=none;html=1;exitX=0.5;exitY=0;exitDx=0;exitDy=0;entryX=1;entryY=0.5;entryDx=0;entryDy=0;endArrow=none;fontSize=13;fontStyle=1" parent="1" source="3" target="130" edge="1">
                    <mxGeometry relative="1" as="geometry">
                        <mxPoint x="-770" y="365" as="targetPoint"/>
                        <mxPoint x="-335" y="760" as="sourcePoint"/>
                    </mxGeometry>
                </mxCell>
                <mxCell id="130" value="创建人" style="ellipse;whiteSpace=wrap;html=1;fontSize=13;fontStyle=1" parent="1" vertex="1">
                    <mxGeometry x="-630" y="495" width="70" height="40" as="geometry"/>
                </mxCell>
                <mxCell id="256" value="" style="edgeStyle=none;html=1;endArrow=none;fontSize=13;exitX=0.5;exitY=1;exitDx=0;exitDy=0;fontStyle=1" parent="1" source="3" target="127" edge="1">
                    <mxGeometry relative="1" as="geometry">
                        <mxPoint x="-335" y="820" as="sourcePoint"/>
                        <mxPoint x="30.09803921568664" y="270" as="targetPoint"/>
                    </mxGeometry>
                </mxCell>
                <mxCell id="127" value="用户id" style="ellipse;whiteSpace=wrap;html=1;fontSize=13;fontStyle=1" parent="1" vertex="1">
                    <mxGeometry x="-340" y="1020" width="60" height="40" as="geometry"/>
                </mxCell>
                <mxCell id="262" value="消息内容" style="ellipse;whiteSpace=wrap;html=1;fontStyle=1;fontSize=13;" parent="1" vertex="1">
                    <mxGeometry x="1310" y="510" width="70" height="45" as="geometry"/>
                </mxCell>
                <mxCell id="264" value="消息状态（是否撤回）" style="ellipse;whiteSpace=wrap;html=1;fontStyle=1;fontSize=13;" parent="1" vertex="1">
                    <mxGeometry x="1390" y="570" width="70" height="45" as="geometry"/>
                </mxCell>
                <mxCell id="266" value="发送时间&lt;span style=&quot;white-space: pre; font-size: 13px;&quot;&gt;&#9;&lt;/span&gt;" style="ellipse;whiteSpace=wrap;html=1;fontStyle=1;fontSize=13;" parent="1" vertex="1">
                    <mxGeometry x="1420" y="630" width="70" height="45" as="geometry"/>
                </mxCell>
                <mxCell id="269" style="edgeStyle=none;html=1;fontSize=13;fontStyle=1" parent="1" source="268" edge="1">
                    <mxGeometry relative="1" as="geometry">
                        <mxPoint x="1440" y="717.5" as="targetPoint"/>
                    </mxGeometry>
                </mxCell>
                <mxCell id="268" value="消息类型" style="ellipse;whiteSpace=wrap;html=1;fontStyle=1;fontSize=13;" parent="1" vertex="1">
                    <mxGeometry x="1430" y="680" width="70" height="45" as="geometry"/>
                </mxCell>
                <mxCell id="272" style="edgeStyle=none;html=1;exitX=1;exitY=0;exitDx=0;exitDy=0;entryX=0;entryY=0.5;entryDx=0;entryDy=0;fontSize=13;fontStyle=1" parent="1" source="270" target="275" edge="1">
                    <mxGeometry relative="1" as="geometry">
                        <mxPoint x="1145" y="925" as="targetPoint"/>
                    </mxGeometry>
                </mxCell>
                <mxCell id="278" style="edgeStyle=none;html=1;exitX=1;exitY=0;exitDx=0;exitDy=0;entryX=0;entryY=0.5;entryDx=0;entryDy=0;fontSize=13;fontStyle=1" parent="1" source="270" target="274" edge="1">
                    <mxGeometry relative="1" as="geometry"/>
                </mxCell>
                <mxCell id="281" style="edgeStyle=none;html=1;exitX=0.5;exitY=0;exitDx=0;exitDy=0;entryX=0.75;entryY=1;entryDx=0;entryDy=0;startArrow=none;fontSize=13;fontStyle=1" parent="1" source="239" target="235" edge="1">
                    <mxGeometry relative="1" as="geometry"/>
                </mxCell>
                <mxCell id="290" style="edgeStyle=none;html=1;exitX=1;exitY=0;exitDx=0;exitDy=0;entryX=0;entryY=0.5;entryDx=0;entryDy=0;fontSize=13;fontStyle=1" parent="1" source="270" target="291" edge="1">
                    <mxGeometry relative="1" as="geometry">
                        <mxPoint x="880" y="1130" as="targetPoint"/>
                    </mxGeometry>
                </mxCell>
                <mxCell id="292" style="edgeStyle=none;html=1;exitX=1;exitY=0;exitDx=0;exitDy=0;entryX=0;entryY=0.5;entryDx=0;entryDy=0;fontSize=13;fontStyle=1" parent="1" source="270" target="293" edge="1">
                    <mxGeometry relative="1" as="geometry">
                        <mxPoint x="960" y="1270" as="targetPoint"/>
                    </mxGeometry>
                </mxCell>
                <mxCell id="296" style="edgeStyle=none;html=1;exitX=1;exitY=0;exitDx=0;exitDy=0;entryX=0;entryY=0.5;entryDx=0;entryDy=0;fontSize=13;fontStyle=1" parent="1" source="270" target="295" edge="1">
                    <mxGeometry relative="1" as="geometry"/>
                </mxCell>
                <mxCell id="297" style="edgeStyle=none;html=1;exitX=0.5;exitY=1;exitDx=0;exitDy=0;entryX=1;entryY=0.5;entryDx=0;entryDy=0;fontSize=13;fontStyle=1" parent="1" source="270" target="298" edge="1">
                    <mxGeometry relative="1" as="geometry">
                        <mxPoint x="380" y="1340" as="targetPoint"/>
                    </mxGeometry>
                </mxCell>
                <mxCell id="299" style="edgeStyle=none;html=1;exitX=1;exitY=0;exitDx=0;exitDy=0;entryX=0;entryY=0.5;entryDx=0;entryDy=0;fontSize=13;fontStyle=1" parent="1" source="270" target="300" edge="1">
                    <mxGeometry relative="1" as="geometry">
                        <mxPoint x="960" y="1320" as="targetPoint"/>
                    </mxGeometry>
                </mxCell>
                <mxCell id="311" style="edgeStyle=none;html=1;exitX=1;exitY=0;exitDx=0;exitDy=0;entryX=0;entryY=0;entryDx=0;entryDy=0;fontSize=13;fontStyle=1" parent="1" source="270" target="239" edge="1">
                    <mxGeometry relative="1" as="geometry"/>
                </mxCell>
                <mxCell id="270" value="群组" style="rounded=0;whiteSpace=wrap;html=1;fontSize=13;fontStyle=1" parent="1" vertex="1">
                    <mxGeometry x="530" y="1100" width="70" height="40" as="geometry"/>
                </mxCell>
                <mxCell id="274" value="群头像" style="ellipse;whiteSpace=wrap;html=1;fontStyle=1;fontSize=13;" parent="1" vertex="1">
                    <mxGeometry x="840" y="1040" width="70" height="40" as="geometry"/>
                </mxCell>
                <mxCell id="275" value="群公告" style="ellipse;whiteSpace=wrap;html=1;fontStyle=1;fontSize=13;" parent="1" vertex="1">
                    <mxGeometry x="830" y="980" width="70" height="45" as="geometry"/>
                </mxCell>
                <mxCell id="279" value="" style="edgeStyle=none;html=1;exitX=1;exitY=0.5;exitDx=0;exitDy=0;entryX=0;entryY=0.5;entryDx=0;entryDy=0;endArrow=none;fontSize=13;fontStyle=1" parent="1" source="3" target="273" edge="1">
                    <mxGeometry relative="1" as="geometry">
                        <mxPoint x="-290" y="790" as="sourcePoint"/>
                        <mxPoint x="700" y="1050" as="targetPoint"/>
                    </mxGeometry>
                </mxCell>
                <mxCell id="273" value="创建人" style="ellipse;whiteSpace=wrap;html=1;fontStyle=1;fontSize=13;" parent="1" vertex="1">
                    <mxGeometry x="310" y="850" width="70" height="45" as="geometry"/>
                </mxCell>
                <mxCell id="239" value="群组id" style="ellipse;whiteSpace=wrap;html=1;fontStyle=1;fontSize=13;" parent="1" vertex="1">
                    <mxGeometry x="860" y="1480" width="70" height="45" as="geometry"/>
                </mxCell>
                <mxCell id="291" value="群组类型" style="ellipse;whiteSpace=wrap;html=1;fontStyle=1;fontSize=13;" parent="1" vertex="1">
                    <mxGeometry x="740" y="850" width="70" height="45" as="geometry"/>
                </mxCell>
                <mxCell id="293" value="群介绍" style="ellipse;whiteSpace=wrap;html=1;fontStyle=1;fontSize=13;" parent="1" vertex="1">
                    <mxGeometry x="850" y="1090" width="70" height="45" as="geometry"/>
                </mxCell>
                <mxCell id="295" value="群名称" style="ellipse;whiteSpace=wrap;html=1;fontStyle=1;fontSize=13;" parent="1" vertex="1">
                    <mxGeometry x="810" y="910" width="70" height="45" as="geometry"/>
                </mxCell>
                <mxCell id="309" style="edgeStyle=none;html=1;exitX=0;exitY=1;exitDx=0;exitDy=0;entryX=1;entryY=0;entryDx=0;entryDy=0;fontSize=13;fontStyle=1" parent="1" source="298" target="306" edge="1">
                    <mxGeometry relative="1" as="geometry"/>
                </mxCell>
                <mxCell id="312" style="edgeStyle=none;html=1;exitX=1;exitY=0.5;exitDx=0;exitDy=0;entryX=0;entryY=0.5;entryDx=0;entryDy=0;fontSize=13;fontStyle=1" parent="1" source="298" target="239" edge="1">
                    <mxGeometry relative="1" as="geometry"/>
                </mxCell>
                <mxCell id="298" value="群成员" style="rounded=0;whiteSpace=wrap;html=1;fontSize=13;fontStyle=1" parent="1" vertex="1">
                    <mxGeometry x="500" y="1490" width="70" height="40" as="geometry"/>
                </mxCell>
                <mxCell id="300" value="群人数" style="ellipse;whiteSpace=wrap;html=1;fontStyle=1;fontSize=13;" parent="1" vertex="1">
                    <mxGeometry x="820" y="1150" width="70" height="45" as="geometry"/>
                </mxCell>
                <mxCell id="306" value="&lt;font style=&quot;font-size: 13px;&quot;&gt;群角色&lt;/font&gt;" style="ellipse;whiteSpace=wrap;html=1;fontStyle=1;fontSize=13;" parent="1" vertex="1">
                    <mxGeometry x="420" y="1250" width="70" height="50" as="geometry"/>
                </mxCell>
                <mxCell id="308" value="" style="edgeStyle=none;html=1;exitX=1;exitY=0.5;exitDx=0;exitDy=0;entryX=0;entryY=0.5;entryDx=0;entryDy=0;fontSize=13;endArrow=none;fontStyle=1" parent="1" source="3" target="305" edge="1">
                    <mxGeometry relative="1" as="geometry">
                        <mxPoint x="-290" y="790" as="sourcePoint"/>
                        <mxPoint x="500" y="1690" as="targetPoint"/>
                    </mxGeometry>
                </mxCell>
                <mxCell id="305" value="用户id" style="ellipse;whiteSpace=wrap;html=1;fontStyle=1;fontSize=13;" parent="1" vertex="1">
                    <mxGeometry x="230" y="990" width="70" height="45" as="geometry"/>
                </mxCell>
            </root>
        </mxGraphModel>
    </diagram>
</mxfile>